# xmcd
#
# Track frame offsets: 
#        150
#        23633
#        37980
#        44124
#        56509
#        73173
#        86336
#        98241
#        114750
#        135761
#        155124
#        165612
#        178133
#        189258
#        200234
#        206246
#        218313
#        236903
#
# Disc length: 3371 seconds
#
# Revision: 3
# Processed by: cddbd v1.5.2PL0 Copyright (c) Steve Scherf et al.
# Submitted via: ExactAudioCopyFreeDBPlugin 1.0
#
DISCID=fa0d2912
DTITLE=Various Artist - Guitar Heroes
DYEAR=1998
DGENRE=Rock
TTITLE0=B.B. King - How Blue Can You Get
TTITLE1=John Mayall - John Lee Boogie
TTITLE2=Eric Clapton - Choker
TTITLE3=Jimi Hendrix - She's A Fox
TTITLE4=Tony Joe White - Polk Salad Annie
TTITLE5=John Mayall - A Big Man
TTITLE6=John Lee Hooker - I'm In The Mood
TTITLE7=Mitch Ryder - Devil With The Blue Dress
TTITLE8=Mike Bloomfield - Cherry Red
TTITLE9=Johnny Winter - Prodigal Son
TTITLE10=B.B. King - I'm Willing To Run All The Way
TTITLE11=Eric Clapton - Freight Loader
TTITLE12=John Lee Hooker - Boom Boom
TTITLE13=Johnny Guitar Watson - Johnny Guitar
TTITLE14=Jimi Hendrix - Wild Thing
TTITLE15=Santana - Latin Tropical [Short Version]
TTITLE16=Humble Pie - Natural Born Boogie
TTITLE17=Mitch Ryder - Jenny Take A Ride
EXTD=YEAR: 1998 ID3G: 17
EXTT0=
EXTT1=
EXTT2=
EXTT3=
EXTT4=
EXTT5=
EXTT6=
EXTT7=
EXTT8=
EXTT9=
EXTT10=
EXTT11=
EXTT12=
EXTT13=
EXTT14=
EXTT15=
EXTT16=
EXTT17=
PLAYORDER=
